# Blender 5.0.1
# www.blender.org
mtllib 1x1x1mm_cube.mtl
o 1x1x1mm_cube
v -0.016218 -0.015089 -0.006903
v -0.016218 0.015163 -0.006903
v 0.016152 0.015163 -0.006903
v 0.016152 -0.015089 -0.006903
v -0.016218 -0.015089 0.006903
v 0.016152 -0.015089 0.006903
v -0.016218 0.015163 0.006903
v 0.016152 0.015163 0.006903
vn -0.0000 -0.0000 -1.0000
vn -0.0000 -1.0000 -0.0000
vn -0.0000 -0.0000 1.0000
vn -0.0000 1.0000 -0.0000
vn -1.0000 -0.0000 -0.0000
vn 1.0000 -0.0000 -0.0000
vt -0.000000 0.000000
vt 3.288202 -0.000000
vt -0.000000 3.900000
vt 3.288202 3.900000
vt 1.170000 0.000000
vt 1.170000 3.900000
vt 1.644101 -0.585000
vt 1.644101 0.585000
vt -1.644101 -0.585000
vt -1.644101 0.585000
s 1
usemtl Steel_-_Satin
f 1/1/1 2/2/1 4/3/1
f 4/3/1 2/2/1 3/4/1
f 5/1/2 1/5/2 6/3/2
f 6/3/2 1/5/2 4/6/2
f 7/1/3 5/2/3 8/3/3
f 8/3/3 5/2/3 6/4/3
f 2/1/4 7/5/4 3/3/4
f 3/3/4 7/5/4 8/6/4
f 7/7/5 2/8/5 5/9/5
f 5/9/5 2/8/5 1/10/5
f 8/8/6 6/10/6 3/7/6
f 3/7/6 6/10/6 4/9/6
